<?xml version="1.0" standalone="no"?>
<!DOCTYPE svg PUBLIC "-//W3C//DTD SVG 20010904//EN"
 "http://www.w3.org/TR/2001/REC-SVG-20010904/DTD/svg10.dtd">
<svg version="1.0" xmlns="http://www.w3.org/2000/svg"
 width="128.000000pt" height="128.000000pt" viewBox="0 0 128.000000 128.000000"
 preserveAspectRatio="xMidYMid meet">
<metadata>
Created by potrace 1.11, written by Peter Selinger 2001-2013
</metadata>
<g transform="translate(0.000000,128.000000) scale(0.100000,-0.100000)"
fill="#000000" stroke="none">
<path d="M518 974 c-29 -15 -58 -61 -58 -91 0 -22 60 -236 69 -245 6 -7 196
44 208 55 6 7 -55 225 -70 248 -28 45 -99 61 -149 33z"/>
<path d="M675 624 c-44 -13 -87 -24 -95 -24 -40 -1 -41 -13 -10 -125 17 -60
38 -121 47 -136 25 -42 79 -59 138 -43 28 7 65 64 65 99 0 22 -56 244 -64 251
0 1 -37 -9 -81 -22z"/>
</g>
</svg>
